<svg id="Layer_1" enable-background="new 0 0 512 512" height="512" viewBox="0 0 512 512" width="512" xmlns="http://www.w3.org/2000/svg"><g><g><g><path d="m400.137 438.269h-293.537c-14.957 0-27.081-12.125-27.081-27.081v-176.372c0-17.864 14.482-32.346 32.346-32.346h288.27c17.864 0 32.346 14.482 32.346 32.346v171.109c0 17.863-14.481 32.344-32.344 32.344z" fill="#a6f5cf"/><path d="m400.135 202.47h-40.595c17.864 0 32.346 14.482 32.346 32.346v171.109c0 17.863-14.481 32.343-32.344 32.343h40.595c17.863 0 32.344-14.481 32.344-32.343v-171.109c0-17.864-14.482-32.346-32.346-32.346z" fill="#8aedbd"/><path d="m302.529 504.388h-93.058l15.64-66.119h61.778z" fill="#6967bf"/><path d="m286.889 438.269h-40.594l15.64 66.119h40.594z" fill="#5b59b2"/><g><path d="m79.519 381.369v29.819c0 14.957 12.125 27.081 27.081 27.081h298.8c14.957 0 27.082-12.125 27.082-27.081v-29.819z" fill="#7776d0"/></g><path d="m391.886 381.369v29.819c0 14.957-12.125 27.082-27.082 27.082h40.596c14.957 0 27.082-12.125 27.082-27.082v-29.819z" fill="#6967bf"/><path d="m331.829 496.777h-151.658c-4.204 0-7.611 3.407-7.611 7.611s3.407 7.612 7.611 7.612h151.657c4.204 0 7.611-3.407 7.611-7.612s-3.406-7.611-7.61-7.611z" fill="#7776d0"/></g></g><g><path d="m3.806 142.663v100.397c0 13.546 10.981 24.526 24.526 24.526h69.98l36.853 33.829v-33.829h21.08c13.546 0 24.527-10.981 24.527-24.526v-100.397c0-13.546-10.981-24.526-24.527-24.526h-127.913c-13.545-.001-24.526 10.98-24.526 24.526z" fill="#fff5b5"/><path d="m156.245 118.136h-40.595c13.546 0 24.527 10.981 24.527 24.527v100.397c0 13.546-10.981 24.527-24.527 24.527h-17.338l36.853 33.829v-33.829h21.08c13.546 0 24.527-10.981 24.527-24.527v-100.397c0-13.546-10.981-24.527-24.527-24.527z" fill="#ffef8f"/><path d="m92.289 149.456 13.644 27.627 30.511 4.43-22.078 21.504 5.212 30.365-27.289-14.336-27.29 14.336 5.212-30.365-22.078-21.504 30.511-4.43z" fill="#ffd54d"/></g><g fill="#fff"><path d="m282.079 327.064-57.694-31.743 57.694-31.744c3.683-2.027 5.026-6.655 3-10.338-2.027-3.682-6.654-5.028-10.338-3l-69.815 38.413c-2.432 1.338-3.943 3.894-3.943 6.669s1.51 5.331 3.943 6.669l69.815 38.412c1.164.64 2.421.944 3.662.944 2.686 0 5.289-1.424 6.676-3.944 2.026-3.682.683-8.311-3-10.338z"/><circle cx="208.595" cy="295.321" r="15.363"/><g><circle cx="278.41" cy="256.908" r="15.363"/><circle cx="278.41" cy="333.734" r="15.363"/></g></g><g><path d="m508.194 189.785v98.263c0 13.258-10.747 24.005-24.005 24.005h-68.493l-36.069 33.11v-33.11h-20.632c-13.258 0-24.005-10.747-24.005-24.005v-98.263c0-13.258 10.747-24.005 24.005-24.005h125.194c13.258 0 24.005 10.748 24.005 24.005z" fill="#ff8ccc"/><g><path d="m484.189 165.78h-40.595c13.258 0 24.005 10.747 24.005 24.005v98.263c0 13.258-10.748 24.005-24.005 24.005h40.595c13.258 0 24.005-10.748 24.005-24.005v-98.263c0-13.258-10.747-24.005-24.005-24.005z" fill="#ff78c2"/></g><path d="m421.593 214.938c6.069-10.979 20.897-15.303 31.646-8.491 9.46 5.995 12.234 18.711 9.747 29.065-4.992 20.787-22.892 35.203-41.393 43.643-18.501-8.44-36.401-22.856-41.393-43.643-2.494-10.383.302-23.034 9.747-29.065 10.728-6.85 25.592-2.46 31.646 8.491z" fill="#fff"/></g><g><path d="m120.636 24.164v98.913c0 13.345 10.819 24.164 24.164 24.164h68.36l36.308 33.329v-33.33h21.353c13.345 0 24.164-10.819 24.164-24.164v-98.912c0-13.345-10.819-24.164-24.164-24.164h-126.021c-13.346 0-24.164 10.819-24.164 24.164z" fill="#d4d9ff"/><path d="m270.821 0h-40.595c13.345 0 24.164 10.819 24.164 24.164v98.913c0 13.345-10.819 24.164-24.164 24.164h-17.066l36.308 33.329v-33.33h21.353c13.345 0 24.164-10.819 24.164-24.164v-98.912c0-13.345-10.819-24.164-24.164-24.164z" fill="#c7cdff"/><g><path d="m173.739 117.71c-8.152 0-14.76-6.608-14.76-14.76v-34.04c0-8.152 6.608-14.76 14.76-14.76 8.152 0 14.76 6.608 14.76 14.76v34.04c0 8.152-6.609 14.76-14.76 14.76z" fill="#7776d0"/><path d="m255.846 67.145.032-.125c1.142-4.459-2.237-8.793-6.84-8.775-1.711.007-3.535.012-5.351.014-7.768.008-20.046.016-25.344.016v-24.814c0-6.258-8.637-8.501-11.716-3.03l-16.607 33.955c-1.048 2.142-1.592 4.495-1.592 6.879v26.035c0 4.398 1.849 8.593 5.096 11.559 4.121 3.765 9.516 5.855 15.116 5.855 11.126 0 21.085-.045 29.555-.015 3.221.011 6.03-2.166 6.829-5.287l.021-.082c1.139-4.446 10.005-39.074 10.801-42.185z" fill="#fff"/></g></g></g></svg>